<mxfile host="app.diagrams.net" modified="2023-11-12T13:11:40.119Z" agent="Mozilla/5.0 (Windows NT 10.0; Win64; x64) AppleWebKit/537.36 (KHTML, like Gecko) Chrome/119.0.0.0 Safari/537.36" etag="fX2pJk-u5gU4ktTuT_X0" version="22.1.0" type="github">
  <diagram name="第 1 页" id="dJ1oXcG6tqiQp3Vra8KJ">
    <mxGraphModel dx="2074" dy="1142" grid="0" gridSize="10" guides="1" tooltips="1" connect="1" arrows="1" fold="1" page="0" pageScale="1" pageWidth="827" pageHeight="1169" math="0" shadow="0">
      <root>
        <mxCell id="0" />
        <mxCell id="1" parent="0" />
        <mxCell id="zDsaMrQd8mf-fHAHXLtK-2" value="" style="rounded=0;whiteSpace=wrap;html=1;dashed=1;dashPattern=8 8;strokeColor=#FFB366;" vertex="1" parent="1">
          <mxGeometry x="348" y="399" width="303" height="78" as="geometry" />
        </mxCell>
        <mxCell id="zDsaMrQd8mf-fHAHXLtK-3" value="WorkContainer" style="text;html=1;align=center;verticalAlign=middle;resizable=0;points=[];autosize=1;strokeColor=none;fillColor=none;" vertex="1" parent="1">
          <mxGeometry x="343" y="369" width="98" height="26" as="geometry" />
        </mxCell>
        <mxCell id="zDsaMrQd8mf-fHAHXLtK-12" value="" style="edgeStyle=orthogonalEdgeStyle;rounded=0;orthogonalLoop=1;jettySize=auto;html=1;" edge="1" parent="1" source="zDsaMrQd8mf-fHAHXLtK-4" target="zDsaMrQd8mf-fHAHXLtK-11">
          <mxGeometry relative="1" as="geometry" />
        </mxCell>
        <mxCell id="zDsaMrQd8mf-fHAHXLtK-4" value="Worker" style="rounded=1;whiteSpace=wrap;html=1;fillColor=#f8cecc;strokeColor=#b85450;" vertex="1" parent="1">
          <mxGeometry x="369" y="421" width="69" height="34" as="geometry" />
        </mxCell>
        <mxCell id="zDsaMrQd8mf-fHAHXLtK-5" value="Worker" style="rounded=1;whiteSpace=wrap;html=1;fillColor=#f8cecc;strokeColor=#b85450;" vertex="1" parent="1">
          <mxGeometry x="463" y="421" width="69" height="34" as="geometry" />
        </mxCell>
        <mxCell id="zDsaMrQd8mf-fHAHXLtK-6" value="Worker" style="rounded=1;whiteSpace=wrap;html=1;fillColor=#f8cecc;strokeColor=#b85450;" vertex="1" parent="1">
          <mxGeometry x="557" y="421" width="69" height="34" as="geometry" />
        </mxCell>
        <mxCell id="zDsaMrQd8mf-fHAHXLtK-7" value="协程池本身是用来控制Golang中无限制开启一个goroutine，而是尽量去服用有限的goroutine" style="text;html=1;align=center;verticalAlign=middle;resizable=0;points=[];autosize=1;strokeColor=none;fillColor=none;" vertex="1" parent="1">
          <mxGeometry x="10" y="221" width="505" height="26" as="geometry" />
        </mxCell>
        <mxCell id="zDsaMrQd8mf-fHAHXLtK-11" value="Worker" style="rounded=1;whiteSpace=wrap;html=1;fillColor=#f8cecc;strokeColor=#b85450;" vertex="1" parent="1">
          <mxGeometry x="369" y="581" width="69" height="34" as="geometry" />
        </mxCell>
      </root>
    </mxGraphModel>
  </diagram>
</mxfile>
